<svg xmlns="http://www.w3.org/2000/svg"
    xmlns:xlink="http://www.w3.org/1999/xlink" viewBox="0 0 140 110" width="140" height="110" preserveAspectRatio="xMidYMid meet" style="width: 100%; height: 100%; transform: translate3d(0px, 0px, 0px); content-visibility: visible;">
    <defs>
        <clipPath id="__lottie_element_3">
            <rect width="140" height="110" x="0" y="0"></rect>
        </clipPath>
    </defs>
    <g clip-path="url(#__lottie_element_3)">
        <g transform="matrix(3.640000104904175,0,0,3.640000104904175,70,37.40700149536133)" opacity="1" style="display: block;">
            <g opacity="1" transform="matrix(1,0,0,1,0,0)">
                <path fill="rgb(255,255,255)" fill-opacity="1" d=" M18,0 C18,0 18,0 18,0 C18,1.1038000583648682 17.10379981994629,2 16,2 C16,2 -16,2 -16,2 C-17.10379981994629,2 -18,1.1038000583648682 -18,0 C-18,0 -18,0 -18,0 C-18,-1.1038000583648682 -17.10379981994629,-2 -16,-2 C-16,-2 16,-2 16,-2 C17.10379981994629,-2 18,-1.1038000583648682 18,0z">
                </path>
            </g>
        </g>
        <g transform="matrix(3.640000104904175,0,0,3.640000104904175,70,73.80699920654297)" opacity="1" style="display: block;">
            <g opacity="1" transform="matrix(1,0,0,1,0,0)">
                <path fill="rgb(255,255,255)" fill-opacity="1" d=" M18,0 C18,0 18,0 18,0 C18,0.5519000291824341 17.55190086364746,1 17,1 C17,1 -17,1 -17,1 C-17.55190086364746,1 -18,0.5519000291824341 -18,0 C-18,0 -18,0 -18,0 C-18,-0.5519000291824341 -17.55190086364746,-1 -17,-1 C-17,-1 17,-1 17,-1 C17.55190086364746,-1 18,-0.5519000291824341 18,0z">
                </path>
            </g>
        </g>
    </g>
</svg>